<svg width="16" height="10" viewBox="0 0 16 10" fill="none" xmlns="http://www.w3.org/2000/svg">
  <path d="M7.84741 9.48828C8.15503 9.47949 8.43628 9.36523 8.66479 9.11914L15.3445 2.28125C15.5378 2.08789 15.6433 1.8418 15.6433 1.55176C15.6433 0.97168 15.1863 0.505859 14.6062 0.505859C14.325 0.505859 14.0525 0.620117 13.8503 0.822266L7.8562 6.9834L1.84448 0.822266C1.64233 0.628906 1.37866 0.505859 1.08862 0.505859C0.508545 0.505859 0.0515137 0.97168 0.0515137 1.55176C0.0515137 1.8418 0.156982 2.08789 0.350342 2.28125L7.03882 9.11914C7.27612 9.36523 7.53979 9.48828 7.84741 9.48828Z" fill="#000"/>
</svg>
